HIERARCHY
ROOT Hips
{
	OFFSET 0.00000 0.00000 0.00000
	CHANNELS 6 Xposition Yposition Zposition Zrotation Yrotation Xrotation 
	JOINT LHipJoint
	{
		OFFSET 0 0 0
		CHANNELS 3 Zrotation Yrotation Xrotation
		JOINT LeftHip
		{
			OFFSET 1.58161 -1.81893 0.78828
			CHANNELS 3 Zrotation Yrotation Xrotation
			JOINT LeftKnee
			{
				OFFSET 2.53374 -6.96141 0.00000
				CHANNELS 3 Zrotation Yrotation Xrotation
				JOINT LeftAnkle
				{
					OFFSET 2.63509 -7.23986 0.00000
					CHANNELS 3 Zrotation Yrotation Xrotation
					JOINT LeftToe
					{
						OFFSET 0.14115 -0.38781 2.05350
						CHANNELS 3 Zrotation Yrotation Xrotation
						End Site
						{
							OFFSET 0.00000 -0.00000 1.05543
						}
					}
				}
			}
		}
	}
	JOINT RHipJoint
	{
		OFFSET 0 0 0
		CHANNELS 3 Zrotation Yrotation Xrotation
		JOINT RightHip
		{
			OFFSET -1.11138 -1.81893 0.78828
			CHANNELS 3 Zrotation Yrotation Xrotation
			JOINT RightKnee
			{
				OFFSET -2.58392 -7.09926 0.00000
				CHANNELS 3 Zrotation Yrotation Xrotation
				JOINT RightAnkle
				{
					OFFSET -2.66423 -7.31992 0.00000
					CHANNELS 3 Zrotation Yrotation Xrotation
					JOINT RightToe
					{
						OFFSET -0.18831 -0.51739 2.12114
						CHANNELS 3 Zrotation Yrotation Xrotation
						End Site
						{
							OFFSET -0.00000 -0.00000 1.09845
						}
					}
				}
			}
		}
	}
	JOINT lowerback
	{
		OFFSET 0 0 0
		CHANNELS 3 Zrotation Yrotation Xrotation
		JOINT Chest
		{
			OFFSET -0.01511 1.97958 -0.08829
			CHANNELS 3 Zrotation Yrotation Xrotation
			JOINT Chest2
			{
				OFFSET 0.08344 1.97334 -0.04330
				CHANNELS 3 Zrotation Yrotation Xrotation
				JOINT lowerneck
				{
					OFFSET 0 0 0
					CHANNELS 3 Zrotation Yrotation Xrotation
					JOINT Neck
					{
						OFFSET 0.00559 1.76246 0.31246
						CHANNELS 3 Zrotation Yrotation Xrotation
						JOINT Head
						{
							OFFSET -0.07011 1.80354 -0.30524
							CHANNELS 3 Zrotation Yrotation Xrotation
							End Site
							{
								OFFSET -0.02385 1.83547 -0.13906
							}
						}
					}
				}
				JOINT LeftCollar
				{
					OFFSET 0 0 0
					CHANNELS 3 Zrotation Yrotation Xrotation
					JOINT LeftShoulder
					{
						OFFSET 3.20667 1.30156 -0.60240
CHANNELS 3 Zrotation Xrotation Yrotation
						JOINT LeftElbow
						{
OFFSET 0 -4.956630 0.000000
CHANNELS 3 Zrotation Xrotation Yrotation
							JOINT LeftWrist
							{
OFFSET 0 -3.381770 0.000000
CHANNELS 3 Zrotation Xrotation Yrotation
								JOINT lhand
								{
									OFFSET 0 0 0
CHANNELS 3 Zrotation Xrotation Yrotation
									JOINT LFingers
									{
OFFSET 0 -0.662910 0.000000
CHANNELS 3 Zrotation Xrotation Yrotation
										End Site
										{
OFFSET 0 -0.534450 0.000000
										}
									}
								}
								JOINT LThumb
								{
OFFSET 0 0.000000 0.000000
CHANNELS 3 Zrotation Xrotation Yrotation
									End Site
									{
OFFSET 0 -0.542610 0.542610
									}
								}
							}
						}
					}
				}
				JOINT RightCollar
				{
					OFFSET 0 0 0
					CHANNELS 3 Zrotation Yrotation Xrotation
					JOINT RightShoulder
					{
						OFFSET -3.06877 1.34672 -0.60964
CHANNELS 3 Zrotation Xrotation Yrotation
						JOINT RightElbow
						{
OFFSET 0 -5.083650 0.000000
CHANNELS 3 Zrotation Xrotation Yrotation
							JOINT RightWrist
							{
OFFSET 0 -3.359840 0.000000
CHANNELS 3 Zrotation Xrotation Yrotation
								JOINT rhand
								{
									OFFSET 0 0 0
CHANNELS 3 Zrotation Xrotation Yrotation
									JOINT RFingers
									{
OFFSET 0 -0.820760 0.000000
CHANNELS 3 Zrotation Xrotation Yrotation
										End Site
										{
OFFSET 0 -0.661720 0.000000
										}
									}
								}
								JOINT RThumb
								{
OFFSET 0 0.000000 0.000000
CHANNELS 3 Zrotation Xrotation Yrotation
									End Site
									{
OFFSET 0 -0.671820 0.671820
									}
								}
							}
						}
					}
				}
			}
		}
	}
}
MOTION
Frames: 5
Frame Time: .0083333
0.5857 18.1259 -2.8817 -0.6651 -3.0839 9.1314 0.0000 0.0000 0.0000 -20.3309 -1.8960 -12.9292 1.3065 7.2407 20.4305 0.4555 -6.1355 -12.1195 0.0991 -2.0301 -5.5889 0.0000 0.0000 0.0000 20.8149 4.2146 -13.9557 -1.9939 -8.8533 25.3376 -0.5111 -7.1688 -17.9944 -0.0279 -1.0791 2.9663 -7.1007 -0.6468 -7.3902 3.7892 -0.4248 -1.2506 7.9754 -0.2995 2.9272 -0.7738 0.0892 -21.0386 -3.7041 1.2359 18.8901 -0.9872 0.0801 9.4636 -0.0000 0.0000 0.0000 -3.0253 -4.0777 -2.3347 10.9955 -18.2813 1.7745 10.6321 6.693 -33.9676 0.0 0.0 0.0 -7.1250 0.0 0.0 -26.7461 62.4207 11.7698 -0.0000 0.0000 0.0000 -7.1413 -0.4852 24.0002 -14.3235 -23.1953 -2.9543 -22.0925 -15.8723 -12.377 0.0 0.0 0.0 7.1250 0.0 -0.0 3.5709 16.6724 2.401
0.5831 18.1259 -2.8838 -0.6598 -3.0899 9.1083 0.0000 0.0000 0.0000 -20.3253 -1.8934 -12.9218 1.3109 7.2525 20.4657 0.4573 -6.1376 -12.1422 0.0944 -1.9811 -5.4534 0.0000 0.0000 0.0000 20.8196 4.2312 -13.9488 -1.9981 -8.8621 25.3649 -0.5071 -7.2054 -17.9805 -0.0267 -1.0540 2.8975 -7.0087 -0.6363 -7.3614 3.7140 -0.4172 -1.2439 7.8408 -0.2940 2.9156 -0.6869 0.0748 -20.9592 -3.7071 1.1911 18.9873 -1.0093 0.0646 9.4829 0.0000 0.0000 0.0000 -2.8984 -4.0508 -2.2775 10.9375 -18.1924 1.7564 10.3638 6.5932 -33.9296 0.0 0.0 0.0 -7.1250 0.0 0.0 -26.9896 62.3193 11.8209 0.0000 0.0000 0.0000 -7.071 -0.4174 24.1276 -14.3514 -23.2349 -2.9653 -22.1344 -15.9639 -12.1207 0.0 0.0 0.0 7.1250 0.0 -0.0 3.5313 16.9423 2.3535
0.5802 18.1254 -2.8846 -0.5961 -3.1031 9.1077 0.0000 0.0000 0.0000 -20.3864 -1.8839 -12.9130 1.3108 7.2521 20.4646 0.4563 -6.1460 -12.1303 0.0881 -1.9144 -5.2691 0.0000 0.0000 0.0000 20.7536 4.2157 -13.9821 -2.0025 -8.8712 25.3932 -0.5070 -7.1772 -17.9541 -0.0252 -1.0239 2.8146 -7.0270 -0.6450 -7.3858 3.6638 -0.4239 -1.2038 7.7968 -0.3012 2.9723 -0.5903 0.0831 -20.9296 -3.7540 1.1826 18.9932 -1.0427 0.0625 9.4802 0.0000 -0.0000 0.0000 -2.8441 -4.1077 -2.2727 10.9205 -18.1663 1.7511 10.2128 6.5205 -34.2599 0.0 0.0 0.0 -7.1250 0.0 0.0 -27.4852 62.5691 12.2177 0.0000 -0.0000 0.0000 -7.0456 -0.4097 24.2078 -14.3854 -23.283 -2.9788 -22.1805 -16.0595 -11.9444 0.0 0.0 0.0 7.1250 0.0 -0.0 3.4921 17.1265 2.3132
0.5765 18.1249 -2.8841 -0.5561 -3.1319 9.0955 0.0000 0.0000 0.0000 -20.4195 -1.8222 -12.9276 1.3122 7.2560 20.4759 0.4530 -6.1998 -12.0957 0.0805 -1.8297 -5.0352 0.0000 0.0000 0.0000 20.7168 4.1835 -13.9968 -2.0067 -8.8799 25.4204 -0.5111 -7.1263 -17.9572 -0.0244 -1.0088 2.7729 -7.0815 -0.6523 -7.3725 3.6645 -0.4298 -1.1598 7.8291 -0.3081 3.0126 -0.5621 0.0950 -20.9526 -3.8125 1.2023 18.9430 -1.0646 0.0675 9.4678 -0.0000 0.0000 0.0000 -2.8882 -4.1164 -2.2615 10.9570 -18.2223 1.7625 10.264 6.5643 -34.1793 0.0 0.0 0.0 -7.1250 0.0 0.0 -27.3484 62.512 12.1151 -0.0000 0.0000 0.0000 -7.0783 -0.4649 24.2231 -14.3654 -23.2546 -2.9708 -22.1973 -16.1409 -11.9851 0.0 0.0 0.0 7.1250 0.0 -0.0 3.4820 17.0813 2.3099
0.5727 18.1250 -2.8844 -0.5927 -3.1631 9.1097 0.0000 0.0000 0.0000 -20.3678 -1.7887 -12.9458 1.3089 7.2472 20.4497 0.4515 -6.2032 -12.0774 0.0819 -1.8462 -5.0807 0.0000 0.0000 0.0000 20.7655 4.2254 -14.0214 -2.0137 -8.8946 25.4661 -0.5125 -7.1400 -17.9855 -0.0232 -0.9826 2.7009 -7.0923 -0.6588 -7.3683 3.7172 -0.4394 -1.1365 7.8915 -0.3153 3.0370 -0.5745 0.1101 -20.9168 -3.8863 1.2401 18.8503 -1.0820 0.0773 9.4304 -0.0000 0.0000 0.0000 -3.0085 -4.0616 -2.2236 10.9979 -18.2851 1.7753 10.1937 6.521 -33.6164 0.0 0.0 0.0 -7.1250 0.0 0.0 -26.8552 62.0022 11.556 -0.0000 0.0000 0.0000 -7.1683 -0.5334 24.2326 -14.3077 -23.1729 -2.9481 -22.2087 -16.2072 -12.1575 0.0 0.0 0.0 7.1250 0.0 -0.0 3.4811 16.8959 2.3235
